<?xml version="1.0" encoding="UTF-8" standalone="no"?>
<!DOCTYPE svg PUBLIC "-//W3C//DTD SVG 1.1//EN" "http://www.w3.org/Graphics/SVG/1.1/DTD/svg11.dtd">
<svg width="100%" height="100%" viewBox="0 0 352 52" version="1.1" xmlns="http://www.w3.org/2000/svg" xmlns:xlink="http://www.w3.org/1999/xlink" xml:space="preserve" xmlns:serif="http://www.serif.com/" style="fill-rule:evenodd;clip-rule:evenodd;stroke-linejoin:round;stroke-miterlimit:2;">
    <g transform="matrix(1,0,0,1,-164.28387,-314.9322)">
        <g transform="matrix(1.455729,0,0,1,0,-1050)">
            <g id="logo_UTB" transform="matrix(0.686941,0,0,1,-915.2797,1050)">
                <g transform="matrix(1,0,0,1,1536.878619,355.8922)">
                    <path d="M0,-2.551L0,-0.685L-5.282,-0.685L-5.282,6.193L-7.253,6.193L-7.253,-8.744L0.83,-8.744L0.83,-6.881L-5.282,-6.881L-5.282,-2.551L0,-2.551Z" style="fill:white;fill-rule:nonzero;"/>
                </g>
                <g transform="matrix(1,0,0,1,1543.927519,355.5591)">
                    <path d="M0,3.191C0,2.425 -0.932,1.907 -1.928,1.907C-2.9,1.907 -3.73,2.32 -3.73,3.479C-3.73,4.536 -2.839,4.93 -1.928,4.93C-0.85,4.93 0,4.225 0,3.52L0,3.191ZM0,5.655C-0.309,6.007 -0.973,6.63 -2.361,6.63C-4.496,6.63 -5.698,5.512 -5.698,3.479C-5.698,1.386 -4.245,0.268 -2.3,0.268C-1.264,0.268 -0.393,0.664 0,1.077L0,-0.126C0,-1.308 -0.786,-1.742 -1.823,-1.742C-2.982,-1.742 -4.018,-1.366 -4.577,-1.139L-4.784,-2.839C-4.184,-3.066 -3.212,-3.439 -1.616,-3.439C0.603,-3.439 1.867,-2.277 1.867,-0.126L1.867,6.525L0,6.525L0,5.655Z" style="fill:white;fill-rule:nonzero;"/>
                </g>
                <g transform="matrix(1,0,0,1,1554.997119,352.762)">
                    <path d="M0,8.785C-0.352,8.971 -1.491,9.428 -2.527,9.428C-4.37,9.428 -6.714,8.473 -6.714,4.37C-6.714,0.437 -4.35,-0.643 -2.527,-0.643C-1.409,-0.643 -0.434,-0.186 0,0.044L-0.413,1.718C-0.891,1.473 -1.741,1.057 -2.527,1.057C-3.648,1.057 -4.746,2.05 -4.746,4.37C-4.746,6.776 -3.648,7.664 -2.527,7.664C-1.697,7.664 -0.891,7.271 -0.413,6.983L0,8.785Z" style="fill:white;fill-rule:nonzero;"/>
                </g>
                <g transform="matrix(1,0,0,1,1562.605019,353.259)">
                    <path d="M0,7.895C-0.332,8.329 -0.911,8.931 -2.361,8.931C-4.289,8.931 -5.532,7.624 -5.532,5.428L-5.532,-1.036L-3.666,-1.036L-3.666,5.385C-3.666,6.506 -3.148,7.272 -2.05,7.272C-0.704,7.272 0,6.279 0,5.161L0,-1.036L1.867,-1.036L1.867,8.823L0,8.823L0,7.895Z" style="fill:white;fill-rule:nonzero;"/>
                </g>
                <g transform="matrix(-1,0,0,1,1781.666919,-2257.3306)">
                    <rect x="212.425" y="2604.479" width="1.866" height="14.935" style="fill:white;"/>
                </g>
                <g transform="matrix(1,0,0,1,1576.473319,348.5178)">
                    <path d="M0,13.339C-0.332,13.505 -0.766,13.674 -1.616,13.674C-2.755,13.674 -4.082,13.237 -4.082,11.079L-4.082,5.259L-5.366,5.259L-5.366,3.704L-4.082,3.704L-4.082,-0.128L-2.216,-0.335L-2.216,3.704L-0.6,3.704L-0.6,5.259L-2.216,5.259L-2.216,11.079C-2.216,11.784 -1.843,11.994 -1.43,11.994C-0.952,11.994 -0.6,11.848 -0.248,11.682L0,13.339Z" style="fill:white;fill-rule:nonzero;"/>
                </g>
                <g transform="matrix(1,0,0,1,1580.620619,352.2223)">
                    <path d="M0,13.884L0,8.287L-3.73,0L-1.657,0L0.932,6.238L3.523,0L5.594,0L1.866,8.287L1.866,13.884L0,13.884Z" style="fill:white;fill-rule:nonzero;"/>
                </g>
                <g transform="matrix(1,0,0,1,1596.311819,360.5333)">
                    <path d="M0,-6.758C-1.47,-6.758 -2.527,-5.596 -2.527,-3.378C-2.527,-1.246 -1.43,-0.108 0,-0.108C1.45,-0.108 2.527,-1.246 2.527,-3.378C2.527,-5.596 1.47,-6.758 0,-6.758M0,1.657C-2.402,1.657 -4.496,0.268 -4.496,-3.378C-4.496,-7.026 -2.321,-8.415 0,-8.415C2.341,-8.415 4.496,-7.026 4.496,-3.378C4.496,0.268 2.382,1.657 0,1.657" style="fill:white;fill-rule:nonzero;"/>
                </g>
                <g transform="matrix(1,0,0,1,1607.587419,360.0116)">
                    <path d="M0,-10.896C-0.352,-11.062 -0.85,-11.289 -1.328,-11.289C-2.073,-11.289 -2.382,-10.876 -2.382,-10.171L-2.382,-7.789L-0.766,-7.789L-0.766,-6.234L-2.382,-6.234L-2.382,2.073L-4.248,2.073L-4.248,-6.234L-5.532,-6.234L-5.532,-7.789L-4.248,-7.789L-4.248,-9.964C-4.248,-12.119 -3.13,-12.969 -1.491,-12.969C-0.643,-12.969 -0.084,-12.719 0.248,-12.553L0,-10.896Z" style="fill:white;fill-rule:nonzero;"/>
                </g>
                <g transform="matrix(1,0,0,1,1621.349419,347.1489)">
                    <path d="M0,14.935L-1.636,14.935L-4.848,4.368L-6.464,14.935L-8.537,14.935L-6.155,0L-4.228,0L-0.766,11.662L2.734,0L4.682,0L6.878,14.935L4.601,14.935L3.293,4.368L0,14.935Z" style="fill:white;fill-rule:nonzero;"/>
                </g>
                <g transform="matrix(1,0,0,1,1636.046319,353.259)">
                    <path d="M0,7.895C-0.332,8.329 -0.911,8.931 -2.361,8.931C-4.289,8.931 -5.532,7.624 -5.532,5.428L-5.532,-1.036L-3.666,-1.036L-3.666,5.385C-3.666,6.506 -3.148,7.272 -2.05,7.272C-0.702,7.272 0,6.279 0,5.161L0,-1.036L1.866,-1.036L1.866,8.823L0,8.823L0,7.895Z" style="fill:white;fill-rule:nonzero;"/>
                </g>
                <g transform="matrix(-1,0,0,1,1928.548919,-2257.3306)">
                    <rect x="285.866" y="2604.479" width="1.866" height="14.935" style="fill:white;"/>
                </g>
                <g transform="matrix(1,0,0,1,1649.915119,348.5178)">
                    <path d="M0,13.339C-0.332,13.505 -0.769,13.674 -1.616,13.674C-2.757,13.674 -4.082,13.237 -4.082,11.079L-4.082,5.259L-5.366,5.259L-5.366,3.704L-4.082,3.704L-4.082,-0.128L-2.219,-0.335L-2.219,3.704L-0.6,3.704L-0.6,5.259L-2.219,5.259L-2.219,11.079C-2.219,11.784 -1.843,11.994 -1.43,11.994C-0.955,11.994 -0.6,11.848 -0.247,11.682L0,13.339Z" style="fill:white;fill-rule:nonzero;"/>
                </g>
                <g transform="matrix(1,0,0,1,1354.950919,-2256.4586)">
                    <path d="M298.696,2618.542L296.83,2618.542L296.83,2608.683L298.696,2608.683L298.696,2618.542ZM297.764,2606.817C296.978,2606.817 296.541,2606.403 296.541,2605.658C296.541,2604.872 296.978,2604.479 297.764,2604.479C298.533,2604.479 298.987,2604.872 298.987,2605.658C298.987,2606.444 298.533,2606.817 297.764,2606.817" style="fill:white;fill-rule:nonzero;"/>
                </g>
                <g transform="matrix(1,0,0,1,1667.613619,358.5383)">
                    <path d="M0,-2.876C0,-3.994 -0.62,-4.763 -1.718,-4.763C-3.005,-4.763 -3.666,-3.977 -3.666,-2.856L-3.666,3.544L-5.532,3.544L-5.532,-2.876C-5.532,-3.994 -6.152,-4.763 -7.25,-4.763C-8.537,-4.763 -9.198,-3.977 -9.198,-2.856L-9.198,3.544L-11.065,3.544L-11.065,-6.315L-9.198,-6.315L-9.198,-5.485C-8.846,-5.901 -8.121,-6.42 -6.939,-6.42C-5.719,-6.42 -4.743,-5.901 -4.184,-4.967C-3.666,-5.715 -2.754,-6.42 -1.409,-6.42C0.518,-6.42 1.866,-5.112 1.866,-2.917L1.866,3.544L0,3.544L0,-2.876Z" style="fill:white;fill-rule:nonzero;"/>
                </g>
                <g transform="matrix(1,0,0,1,1678.145419,357.9001)">
                    <path d="M0,-1.491C0,-3.212 -0.847,-4.123 -2.175,-4.123C-3.188,-4.123 -4.164,-3.544 -4.371,-1.491L0,-1.491ZM-4.371,0C-4.164,1.802 -3.127,2.528 -1.863,2.528C-0.434,2.528 0.416,2.175 1.142,1.802L1.474,3.605C0.582,4.018 -0.329,4.289 -1.884,4.289C-4.371,4.289 -6.38,2.755 -6.38,-0.661C-6.38,-3.998 -4.516,-5.78 -2.175,-5.78C0.498,-5.78 1.968,-3.873 1.968,-0.996L1.968,0L-4.371,0Z" style="fill:white;fill-rule:nonzero;"/>
                </g>
                <g transform="matrix(1,0,0,1,1688.490719,353.3031)">
                    <path d="M0,2.732C0,1.177 -0.975,0.472 -2.175,0.472C-3.337,0.472 -4.536,1.509 -4.536,3.934C-4.536,6.336 -3.523,7.123 -2.28,7.123C-1.036,7.123 0,6.4 0,4.805L0,2.732ZM0,7.827C-0.291,8.182 -1.077,8.887 -2.568,8.887C-4.37,8.887 -6.505,7.685 -6.505,3.934C-6.505,0.414 -4.496,-1.185 -2.382,-1.185C-0.83,-1.185 -0.291,-0.605 0,-0.273L0,-6.155L1.864,-6.155L1.864,8.779L0,8.779L0,7.827Z" style="fill:white;fill-rule:nonzero;"/>
                </g>
                <g transform="matrix(1,0,0,1,1354.950919,-2256.4586)">
                    <path d="M340.174,2618.542L338.308,2618.542L338.308,2608.683L340.174,2608.683L340.174,2618.542ZM339.242,2606.817C338.456,2606.817 338.019,2606.403 338.019,2605.658C338.019,2604.872 338.456,2604.479 339.242,2604.479C340.008,2604.479 340.465,2604.872 340.465,2605.658C340.465,2606.444 340.008,2606.817 339.242,2606.817" style="fill:white;fill-rule:nonzero;"/>
                </g>
                <g transform="matrix(1,0,0,1,1703.103319,355.5591)">
                    <path d="M0,3.191C0,2.425 -0.932,1.907 -1.928,1.907C-2.9,1.907 -3.73,2.32 -3.73,3.479C-3.73,4.536 -2.839,4.93 -1.928,4.93C-0.85,4.93 0,4.225 0,3.52L0,3.191ZM0,5.655C-0.312,6.007 -0.973,6.63 -2.362,6.63C-4.496,6.63 -5.698,5.512 -5.698,3.479C-5.698,1.386 -4.245,0.268 -2.3,0.268C-1.264,0.268 -0.393,0.664 0,1.077L0,-0.126C0,-1.308 -0.786,-1.742 -1.823,-1.742C-2.982,-1.742 -4.018,-1.366 -4.577,-1.139L-4.784,-2.839C-4.184,-3.066 -3.212,-3.439 -1.616,-3.439C0.603,-3.439 1.866,-2.277 1.866,-0.126L1.866,6.525L0,6.525L0,5.655Z" style="fill:white;fill-rule:nonzero;"/>
                </g>
                <g transform="matrix(1,0,0,1,1721.488019,348.119)">
                    <path d="M0,12.993C-0.559,13.471 -1.904,14.07 -3.812,14.07C-6.671,14.07 -9.262,12.166 -9.262,6.549C-9.262,0.996 -6.092,-1.077 -3.418,-1.077C-1.741,-1.077 -0.664,-0.559 0,-0.06L-0.414,1.826C-0.85,1.474 -1.904,0.831 -3.398,0.831C-5.366,0.831 -7.189,2.717 -7.189,6.549C-7.189,10.527 -5.489,12.166 -3.812,12.166C-2.175,12.166 -1.223,11.665 -0.414,11.086L0,12.993Z" style="fill:white;fill-rule:nonzero;"/>
                </g>
                <g transform="matrix(1,0,0,1,1727.544219,360.5333)">
                    <path d="M0,-6.758C-1.47,-6.758 -2.527,-5.596 -2.527,-3.378C-2.527,-1.246 -1.43,-0.108 0,-0.108C1.45,-0.108 2.527,-1.246 2.527,-3.378C2.527,-5.596 1.47,-6.758 0,-6.758M0,1.657C-2.402,1.657 -4.496,0.268 -4.496,-3.378C-4.496,-7.026 -2.321,-8.415 0,-8.415C2.341,-8.415 4.496,-7.026 4.496,-3.378C4.496,0.268 2.382,1.657 0,1.657" style="fill:white;fill-rule:nonzero;"/>
                </g>
                <g transform="matrix(1,0,0,1,1745.387019,358.5383)">
                    <path d="M0,-2.876C0,-3.994 -0.62,-4.763 -1.718,-4.763C-3.002,-4.763 -3.666,-3.977 -3.666,-2.856L-3.666,3.544L-5.532,3.544L-5.532,-2.876C-5.532,-3.994 -6.152,-4.763 -7.25,-4.763C-8.534,-4.763 -9.198,-3.977 -9.198,-2.856L-9.198,3.544L-11.065,3.544L-11.065,-6.315L-9.198,-6.315L-9.198,-5.485C-8.846,-5.901 -8.121,-6.42 -6.939,-6.42C-5.719,-6.42 -4.743,-5.901 -4.184,-4.967C-3.666,-5.715 -2.754,-6.42 -1.406,-6.42C0.518,-6.42 1.867,-5.112 1.867,-2.917L1.867,3.544L0,3.544L0,-2.876Z" style="fill:white;fill-rule:nonzero;"/>
                </g>
                <g transform="matrix(1,0,0,1,1761.224219,358.5383)">
                    <path d="M0,-2.876C0,-3.994 -0.623,-4.763 -1.721,-4.763C-3.005,-4.763 -3.666,-3.977 -3.666,-2.856L-3.666,3.544L-5.532,3.544L-5.532,-2.876C-5.532,-3.994 -6.153,-4.763 -7.25,-4.763C-8.537,-4.763 -9.198,-3.977 -9.198,-2.856L-9.198,3.544L-11.065,3.544L-11.065,-6.315L-9.198,-6.315L-9.198,-5.485C-8.846,-5.901 -8.121,-6.42 -6.942,-6.42C-5.719,-6.42 -4.743,-5.901 -4.184,-4.967C-3.666,-5.715 -2.754,-6.42 -1.409,-6.42C0.518,-6.42 1.866,-5.112 1.866,-2.917L1.866,3.544L0,3.544L0,-2.876Z" style="fill:white;fill-rule:nonzero;"/>
                </g>
                <g transform="matrix(1,0,0,1,1771.529019,353.259)">
                    <path d="M0,7.895C-0.332,8.329 -0.911,8.931 -2.361,8.931C-4.289,8.931 -5.532,7.624 -5.532,5.428L-5.532,-1.036L-3.666,-1.036L-3.666,5.385C-3.666,6.506 -3.148,7.272 -2.05,7.272C-0.705,7.272 0,6.279 0,5.161L0,-1.036L1.866,-1.036L1.866,8.823L0,8.823L0,7.895Z" style="fill:white;fill-rule:nonzero;"/>
                </g>
                <g transform="matrix(1,0,0,1,1781.831219,358.5383)">
                    <path d="M0,-2.876C0,-3.994 -0.62,-4.763 -1.718,-4.763C-3.005,-4.763 -3.666,-3.977 -3.666,-2.856L-3.666,3.544L-5.532,3.544L-5.532,-6.315L-3.666,-6.315L-3.666,-5.485C-3.313,-5.901 -2.589,-6.42 -1.409,-6.42C0.518,-6.42 1.867,-5.112 1.867,-2.917L1.867,3.544L0,3.544L0,-2.876Z" style="fill:white;fill-rule:nonzero;"/>
                </g>
                <g transform="matrix(1,0,0,1,1354.950919,-2256.4586)">
                    <path d="M433.516,2618.542L431.65,2618.542L431.65,2608.683L433.516,2608.683L433.516,2618.542ZM432.584,2606.817C431.798,2606.817 431.361,2606.403 431.361,2605.658C431.361,2604.872 431.798,2604.479 432.584,2604.479C433.35,2604.479 433.807,2604.872 433.807,2605.658C433.807,2606.444 433.35,2606.817 432.584,2606.817" style="fill:white;fill-rule:nonzero;"/>
                </g>
                <g transform="matrix(1,0,0,1,1797.668119,352.762)">
                    <path d="M0,8.785C-0.352,8.971 -1.491,9.428 -2.527,9.428C-4.37,9.428 -6.714,8.473 -6.714,4.37C-6.714,0.437 -4.35,-0.643 -2.527,-0.643C-1.409,-0.643 -0.434,-0.186 0,0.044L-0.413,1.718C-0.891,1.473 -1.741,1.057 -2.527,1.057C-3.646,1.057 -4.746,2.05 -4.746,4.37C-4.746,6.776 -3.646,7.664 -2.527,7.664C-1.698,7.664 -0.891,7.271 -0.413,6.983L0,8.785Z" style="fill:white;fill-rule:nonzero;"/>
                </g>
                <g transform="matrix(1,0,0,1,1804.820119,355.5591)">
                    <path d="M0,3.191C0,2.425 -0.932,1.907 -1.928,1.907C-2.9,1.907 -3.73,2.32 -3.73,3.479C-3.73,4.536 -2.839,4.93 -1.928,4.93C-0.85,4.93 0,4.225 0,3.52L0,3.191ZM0,5.655C-0.312,6.007 -0.973,6.63 -2.361,6.63C-4.496,6.63 -5.698,5.512 -5.698,3.479C-5.698,1.386 -4.245,0.268 -2.3,0.268C-1.264,0.268 -0.393,0.664 0,1.077L0,-0.126C0,-1.308 -0.786,-1.742 -1.823,-1.742C-2.982,-1.742 -4.018,-1.366 -4.577,-1.139L-4.787,-2.839C-4.184,-3.066 -3.212,-3.439 -1.616,-3.439C0.603,-3.439 1.866,-2.277 1.866,-0.126L1.866,6.525L0,6.525L0,5.655Z" style="fill:white;fill-rule:nonzero;"/>
                </g>
                <g transform="matrix(1,0,0,1,1813.921419,348.5178)">
                    <path d="M0,13.339C-0.332,13.505 -0.766,13.674 -1.616,13.674C-2.754,13.674 -4.082,13.237 -4.082,11.079L-4.082,5.259L-5.366,5.259L-5.366,3.704L-4.082,3.704L-4.082,-0.128L-2.216,-0.335L-2.216,3.704L-0.6,3.704L-0.6,5.259L-2.216,5.259L-2.216,11.079C-2.216,11.784 -1.843,11.994 -1.43,11.994C-0.952,11.994 -0.6,11.848 -0.248,11.682L0,13.339Z" style="fill:white;fill-rule:nonzero;"/>
                </g>
                <g transform="matrix(1,0,0,1,1354.950919,-2256.4586)">
                    <path d="M462.703,2618.542L460.837,2618.542L460.837,2608.683L462.703,2608.683L462.703,2618.542ZM461.771,2606.817C460.985,2606.817 460.548,2606.403 460.548,2605.658C460.548,2604.872 460.985,2604.479 461.771,2604.479C462.537,2604.479 462.994,2604.872 462.994,2605.658C462.994,2606.444 462.537,2606.817 461.771,2606.817" style="fill:white;fill-rule:nonzero;"/>
                </g>
                <g transform="matrix(1,0,0,1,1824.431219,360.5333)">
                    <path d="M0,-6.758C-1.47,-6.758 -2.527,-5.596 -2.527,-3.378C-2.527,-1.246 -1.43,-0.108 0,-0.108C1.45,-0.108 2.527,-1.246 2.527,-3.378C2.527,-5.596 1.47,-6.758 0,-6.758M0,1.657C-2.402,1.657 -4.496,0.268 -4.496,-3.378C-4.496,-7.026 -2.321,-8.415 0,-8.415C2.341,-8.415 4.496,-7.026 4.496,-3.378C4.496,0.268 2.382,1.657 0,1.657" style="fill:white;fill-rule:nonzero;"/>
                </g>
                <g transform="matrix(1,0,0,1,1836.742219,358.5383)">
                    <path d="M0,-2.876C0,-3.994 -0.62,-4.763 -1.718,-4.763C-3.005,-4.763 -3.666,-3.977 -3.666,-2.856L-3.666,3.544L-5.532,3.544L-5.532,-6.315L-3.666,-6.315L-3.666,-5.485C-3.314,-5.901 -2.589,-6.42 -1.406,-6.42C0.518,-6.42 1.867,-5.112 1.867,-2.917L1.867,3.544L0,3.544L0,-2.876Z" style="fill:white;fill-rule:nonzero;"/>
                </g>
                <g transform="matrix(1,0,0,1,1844.145119,352.1183)">
                    <path d="M0,10.072C-1.555,10.072 -2.632,9.638 -3.232,9.367L-2.9,7.605C-2.114,7.978 -1.118,8.307 0,8.307C0.871,8.307 1.698,8.06 1.698,7.169C1.698,6.281 0.746,6.051 -0.311,5.783C-1.68,5.43 -3.252,4.994 -3.252,2.944C-3.252,0.955 -1.866,0 0.454,0C1.823,0 2.798,0.312 3.459,0.58L3.148,2.321C2.382,1.968 1.637,1.657 0.498,1.657C-0.623,1.657 -1.304,2.032 -1.304,2.921C-1.304,3.628 -0.498,3.855 0.454,4.126C1.907,4.519 3.71,4.973 3.71,7.128C3.71,9.012 2.612,10.072 0,10.072" style="fill:white;fill-rule:nonzero;"/>
                </g>
                <g transform="matrix(1,0,0,1,1496.753019,340.0372)">
                    <path d="M0,-18.236C0,-17.383 1.398,-16.6 3.058,-16.6C3.672,-16.6 4.266,-16.719 4.764,-16.888C5.282,-17.051 21.6,-22.761 21.6,-22.761L21.6,0.688C21.6,0.688 5.189,6.418 4.738,6.587C4.266,6.75 3.579,6.869 3.031,6.869C1.351,6.869 -0.07,6.016 -0.07,4.502L-0.07,-18.236L0,-18.236ZM17.456,-25.032L-0.07,-19.136L-0.07,-25.105L17.456,-25.105L17.456,-25.032Z" style="fill:white;fill-rule:nonzero;"/>
                </g>
                <g transform="matrix(1,0,0,1,1532.842819,319.41)">
                    <path d="M0,17.075L0,2.129L-4.143,2.129L-4.143,0L6.394,0L6.394,2.129L2.251,2.129L2.251,17.075L0,17.075Z" style="fill:white;fill-rule:nonzero;"/>
                </g>
                <g transform="matrix(1,0,0,1,1543.553919,334.7122)">
                    <path d="M0,-7.725C-1.68,-7.725 -2.888,-6.397 -2.888,-3.864C-2.888,-1.424 -1.634,-0.119 0,-0.119C1.657,-0.119 2.891,-1.424 2.891,-3.864C2.891,-6.397 1.683,-7.725 0,-7.725M0,1.893C-2.746,1.893 -5.139,0.306 -5.139,-3.864C-5.139,-8.031 -2.653,-9.618 0,-9.618C2.676,-9.618 5.139,-8.031 5.139,-3.864C5.139,0.306 2.723,1.893 0,1.893" style="fill:white;fill-rule:nonzero;"/>
                </g>
                <g transform="matrix(1,0,0,1,1563.953319,332.4344)">
                    <path d="M0,-3.29C0,-4.571 -0.711,-5.448 -1.965,-5.448C-3.436,-5.448 -4.193,-4.545 -4.193,-3.267L-4.193,4.051L-6.325,4.051L-6.325,-3.29C-6.325,-4.571 -7.035,-5.448 -8.29,-5.448C-9.757,-5.448 -10.514,-4.545 -10.514,-3.267L-10.514,4.051L-12.646,4.051L-12.646,-7.221L-10.514,-7.221L-10.514,-6.275C-10.113,-6.746 -9.286,-7.341 -7.935,-7.341C-6.537,-7.341 -5.425,-6.746 -4.784,-5.684C-4.193,-6.534 -3.15,-7.341 -1.61,-7.341C0.591,-7.341 2.131,-5.85 2.131,-3.337L2.131,4.051L0,4.051L0,-3.29Z" style="fill:white;fill-rule:nonzero;"/>
                </g>
                <g transform="matrix(1,0,0,1,1575.213619,329.026)">
                    <path d="M0,3.648C0,2.772 -1.066,2.178 -2.204,2.178C-3.316,2.178 -4.263,2.652 -4.263,3.977C-4.263,5.186 -3.247,5.634 -2.204,5.634C-0.972,5.634 0,4.83 0,4.024L0,3.648ZM0,6.464C-0.355,6.866 -1.112,7.579 -2.702,7.579C-5.139,7.579 -6.514,6.301 -6.514,3.977C-6.514,1.586 -4.854,0.308 -2.629,0.308C-1.444,0.308 -0.451,0.757 0,1.231L0,-0.14C0,-1.491 -0.9,-1.989 -2.085,-1.989C-3.413,-1.989 -4.595,-1.564 -5.235,-1.302L-5.471,-3.247C-4.784,-3.506 -3.672,-3.931 -1.849,-3.931C0.687,-3.931 2.131,-2.606 2.131,-0.14L2.131,7.46L0,7.46L0,6.464Z" style="fill:white;fill-rule:nonzero;"/>
                </g>
                <g transform="matrix(1,0,0,1,1583.673819,325.0949)">
                    <path d="M0,11.51C-1.776,11.51 -3.008,11.009 -3.695,10.707L-3.314,8.692C-2.414,9.117 -1.278,9.498 0,9.498C0.996,9.498 1.942,9.213 1.942,8.194C1.942,7.175 0.853,6.915 -0.355,6.607C-1.919,6.205 -3.718,5.707 -3.718,3.363C-3.718,1.089 -2.131,0 0.521,0C2.085,0 3.197,0.355 3.957,0.661L3.602,2.652C2.723,2.248 1.872,1.892 0.568,1.892C-0.71,1.892 -1.491,2.318 -1.491,3.34C-1.491,4.143 -0.568,4.405 0.521,4.711C2.178,5.162 4.24,5.684 4.24,8.144C4.24,10.302 2.985,11.51 0,11.51" style="fill:white;fill-rule:nonzero;"/>
                </g>
                <g transform="matrix(1,0,0,1,1600.781719,327.1533)">
                    <path d="M0,1.589L-2.556,1.589L-2.556,7.203L0,7.203C1.776,7.203 3.031,6.231 3.031,4.478C3.031,2.652 1.753,1.589 0,1.589M0.309,-5.615L-2.556,-5.615L-2.556,-0.542L0,-0.542C1.753,-0.542 2.915,-1.395 2.915,-3.076C2.915,-4.808 1.826,-5.615 0.309,-5.615M-0.07,9.332L-4.807,9.332L-4.807,-7.743L0.285,-7.743C3.436,-7.743 5.282,-6.016 5.282,-3.198C5.282,-1.253 4.263,-0.19 2.842,0.497C4.382,1.141 5.401,2.605 5.401,4.431C5.401,7.509 3.293,9.332 -0.07,9.332" style="fill:white;fill-rule:nonzero;"/>
                </g>
                <g transform="matrix(1,0,0,1,1614.835119,329.026)">
                    <path d="M0,3.648C0,2.772 -1.066,2.178 -2.204,2.178C-3.316,2.178 -4.263,2.652 -4.263,3.977C-4.263,5.186 -3.247,5.634 -2.204,5.634C-0.972,5.634 0,4.83 0,4.024L0,3.648ZM0,6.464C-0.355,6.866 -1.112,7.579 -2.699,7.579C-5.139,7.579 -6.514,6.301 -6.514,3.977C-6.514,1.586 -4.854,0.308 -2.629,0.308C-1.444,0.308 -0.451,0.757 0,1.231L0,-0.14C0,-1.491 -0.9,-1.989 -2.085,-1.989C-3.413,-1.989 -4.595,-1.564 -5.235,-1.302L-5.471,-3.247C-4.784,-3.506 -3.672,-3.931 -1.849,-3.931C0.687,-3.931 2.131,-2.606 2.131,-0.14L2.131,7.46L0,7.46L0,6.464Z" style="fill:white;fill-rule:nonzero;"/>
                </g>
                <g transform="matrix(1,0,0,1,1625.238419,320.97)">
                    <path d="M0,15.256C-0.379,15.445 -0.877,15.634 -1.849,15.634C-3.151,15.634 -4.668,15.136 -4.668,12.673L-4.668,6.017L-6.135,6.017L-6.135,4.243L-4.668,4.243L-4.668,-0.139L-2.533,-0.378L-2.533,4.243L-0.687,4.243L-0.687,6.017L-2.533,6.017L-2.533,12.673C-2.533,13.48 -2.108,13.715 -1.633,13.715C-1.089,13.715 -0.687,13.549 -0.285,13.36L0,15.256Z" style="fill:white;fill-rule:nonzero;"/>
                </g>
                <g transform="matrix(1,0,0,1,1633.177119,329.026)">
                    <path d="M0,3.648C0,2.772 -1.066,2.178 -2.204,2.178C-3.316,2.178 -4.263,2.652 -4.263,3.977C-4.263,5.186 -3.247,5.634 -2.204,5.634C-0.972,5.634 0,4.83 0,4.024L0,3.648ZM0,6.464C-0.355,6.866 -1.112,7.579 -2.699,7.579C-5.139,7.579 -6.514,6.301 -6.514,3.977C-6.514,1.586 -4.854,0.308 -2.629,0.308C-1.444,0.308 -0.451,0.757 0,1.231L0,-0.14C0,-1.491 -0.9,-1.989 -2.085,-1.989C-3.41,-1.989 -4.595,-1.564 -5.235,-1.302L-5.471,-3.247C-4.784,-3.506 -3.672,-3.931 -1.849,-3.931C0.687,-3.931 2.131,-2.606 2.131,-0.14L2.131,7.46L0,7.46L0,6.464Z" style="fill:white;fill-rule:nonzero;"/>
                </g>
                <g transform="matrix(1,0,0,1,1654.713519,325.4268)">
                    <path d="M0,5.162C0,9.046 -1.491,11.178 -5.282,11.178C-9.07,11.178 -10.634,9.046 -10.634,5.162L-10.634,-6.016L-8.383,-6.016L-8.383,5.066C-8.383,7.695 -7.649,9.046 -5.282,9.046C-2.912,9.046 -2.248,7.695 -2.248,5.066L-2.248,-6.016L0,-6.016L0,5.162Z" style="fill:white;fill-rule:nonzero;"/>
                </g>
                <g transform="matrix(1,0,0,1,1664.361119,332.4344)">
                    <path d="M0,-3.29C0,-4.571 -0.71,-5.448 -1.966,-5.448C-3.433,-5.448 -4.193,-4.545 -4.193,-3.267L-4.193,4.051L-6.324,4.051L-6.324,-7.221L-4.193,-7.221L-4.193,-6.275C-3.788,-6.746 -2.961,-7.341 -1.61,-7.341C0.591,-7.341 2.131,-5.85 2.131,-3.337L2.131,4.051L0,4.051L0,-3.29Z" style="fill:white;fill-rule:nonzero;"/>
                </g>
                <g transform="matrix(1,0,0,1,1354.950919,-2309.6726)">
                    <path d="M316.996,2646.157L314.865,2646.157L314.865,2634.886L316.996,2634.886L316.996,2646.157ZM315.93,2632.754C315.031,2632.754 314.533,2632.28 314.533,2631.426C314.533,2630.527 315.031,2630.078 315.93,2630.078C316.807,2630.078 317.328,2630.527 317.328,2631.426C317.328,2632.329 316.807,2632.754 315.93,2632.754" style="fill:white;fill-rule:nonzero;"/>
                </g>
                <g transform="matrix(1,0,0,1,1673.606919,336.484)">
                    <path d="M0,-11.271L2.367,-11.271L5.163,-2.841L7.935,-11.271L10.302,-11.271L6.182,0L4.123,0L0,-11.271Z" style="fill:white;fill-rule:nonzero;"/>
                </g>
                <g transform="matrix(1,0,0,1,1691.682419,331.705)">
                    <path d="M0,-1.71C0,-3.672 -0.97,-4.718 -2.487,-4.718C-3.646,-4.718 -4.761,-4.054 -4.997,-1.71L0,-1.71ZM-4.997,-0.003C-4.761,2.058 -3.576,2.888 -2.131,2.888C-0.498,2.888 0.475,2.483 1.304,2.058L1.683,4.117C0.664,4.591 -0.378,4.9 -2.155,4.9C-4.997,4.9 -7.294,3.147 -7.294,-0.761C-7.294,-4.575 -5.163,-6.61 -2.487,-6.61C0.568,-6.61 2.251,-4.429 2.251,-1.139L2.251,-0.003L-4.997,-0.003Z" style="fill:white;fill-rule:nonzero;"/>
                </g>
                <g transform="matrix(1,0,0,1,1701.495119,334.0213)">
                    <path d="M0,-6.464C-0.259,-6.583 -0.734,-6.747 -1.325,-6.747C-2.227,-6.747 -2.819,-6.016 -2.819,-4.854L-2.819,2.463L-4.95,2.463L-4.95,-8.808L-2.819,-8.808L-2.819,-7.53C-2.463,-8.264 -1.895,-8.927 -0.757,-8.927C-0.332,-8.927 0.07,-8.808 0.282,-8.715L0,-6.464Z" style="fill:white;fill-rule:nonzero;"/>
                </g>
                <g transform="matrix(1,0,0,1,1706.921319,325.0949)">
                    <path d="M0,11.51C-1.776,11.51 -3.008,11.009 -3.695,10.707L-3.314,8.692C-2.414,9.117 -1.278,9.498 0,9.498C0.996,9.498 1.942,9.213 1.942,8.194C1.942,7.175 0.853,6.915 -0.355,6.607C-1.919,6.205 -3.718,5.707 -3.718,3.363C-3.718,1.089 -2.131,0 0.521,0C2.085,0 3.197,0.355 3.957,0.661L3.602,2.652C2.723,2.248 1.872,1.892 0.571,1.892C-0.711,1.892 -1.491,2.318 -1.491,3.34C-1.491,4.143 -0.568,4.405 0.521,4.711C2.178,5.162 4.24,5.684 4.24,8.144C4.24,10.302 2.985,11.51 0,11.51" style="fill:white;fill-rule:nonzero;"/>
                </g>
                <g transform="matrix(1,0,0,1,1354.950919,-2309.6726)">
                    <path d="M360.953,2646.157L358.821,2646.157L358.821,2634.886L360.953,2634.886L360.953,2646.157ZM359.887,2632.754C358.987,2632.754 358.489,2632.28 358.489,2631.426C358.489,2630.527 358.987,2630.078 359.887,2630.078C360.763,2630.078 361.285,2630.527 361.285,2631.426C361.285,2632.329 360.763,2632.754 359.887,2632.754" style="fill:white;fill-rule:nonzero;"/>
                </g>
                <g transform="matrix(1,0,0,1,1724.646619,320.97)">
                    <path d="M0,15.256C-0.378,15.445 -0.876,15.634 -1.849,15.634C-3.15,15.634 -4.668,15.136 -4.668,12.673L-4.668,6.017L-6.135,6.017L-6.135,4.243L-4.668,4.243L-4.668,-0.139L-2.533,-0.378L-2.533,4.243L-0.687,4.243L-0.687,6.017L-2.533,6.017L-2.533,12.673C-2.533,13.48 -2.108,13.715 -1.633,13.715C-1.089,13.715 -0.687,13.549 -0.285,13.36L0,15.256Z" style="fill:white;fill-rule:nonzero;"/>
                </g>
                <g transform="matrix(1,0,0,1,1729.387419,325.2117)">
                    <path d="M0,15.869L0,9.472L-4.263,0L-1.896,0L1.066,7.131L4.027,0L6.394,0L2.131,9.472L2.131,15.869L0,15.869Z" style="fill:white;fill-rule:nonzero;"/>
                </g>
                <g transform="matrix(1,0,0,1,1354.950919,-2309.6726)">
                    <path d="M390.077,2646.157L387.946,2646.157L387.946,2634.886L390.077,2634.886L390.077,2646.157ZM389.011,2632.754C388.111,2632.754 387.613,2632.28 387.613,2631.426C387.613,2630.527 388.111,2630.078 389.011,2630.078C389.887,2630.078 390.409,2630.527 390.409,2631.426C390.409,2632.329 389.887,2632.754 389.011,2632.754" style="fill:white;fill-rule:nonzero;"/>
                </g>
                <g transform="matrix(1,0,0,1,1754.669319,332.4344)">
                    <path d="M0,-3.29C0,-4.571 -0.711,-5.448 -1.965,-5.448C-3.436,-5.448 -4.193,-4.545 -4.193,-3.267L-4.193,4.051L-6.324,4.051L-6.324,-7.221L-4.193,-7.221L-4.193,-6.275C-3.788,-6.746 -2.961,-7.341 -1.61,-7.341C0.591,-7.341 2.131,-5.85 2.131,-3.337L2.131,4.051L0,4.051L0,-3.29Z" style="fill:white;fill-rule:nonzero;"/>
                </g>
                <g transform="matrix(1,0,0,1,1774.312719,319.41)">
                    <path d="M0,17.075L-9.923,17.075L-2.865,2.129L-9.449,2.129L-9.449,0L0.498,0L-6.584,14.947L0,14.947L0,17.075Z" style="fill:white;fill-rule:nonzero;"/>
                </g>
                <g transform="matrix(-1,0,0,1,2201.075919,-2310.6656)">
                    <rect x="421.997" y="2630.077" width="2.131" height="17.074" style="fill:white;"/>
                </g>
                <g transform="matrix(1,0,0,1,1354.950919,-2310.1926)">
                    <path d="M429.579,2646.679L427.448,2646.679L427.448,2635.408L429.579,2635.408L429.579,2646.679ZM428.891,2630.076L431.285,2630.076L429.057,2633.817L427.374,2633.817L428.891,2630.076Z" style="fill:white;fill-rule:nonzero;"/>
                </g>
                <g transform="matrix(1,0,0,1,1794.171619,332.4344)">
                    <path d="M0,-3.29C0,-4.571 -0.71,-5.448 -1.965,-5.448C-3.436,-5.448 -4.193,-4.545 -4.193,-3.267L-4.193,4.051L-6.324,4.051L-6.324,-7.221L-4.193,-7.221L-4.193,-6.275C-3.791,-6.746 -2.961,-7.341 -1.61,-7.341C0.591,-7.341 2.131,-5.85 2.131,-3.337L2.131,4.051L0,4.051L0,-3.29Z" style="fill:white;fill-rule:nonzero;"/>
                </g>
            </g>
        </g>
    </g>
</svg>
